<?xml version="1.0" standalone="no"?>
<!DOCTYPE svg PUBLIC "-//W3C//DTD SVG 20010904//EN"
 "http://www.w3.org/TR/2001/REC-SVG-20010904/DTD/svg10.dtd">
<svg version="1.0" xmlns="http://www.w3.org/2000/svg"
 width="310.000000pt" height="310.000000pt" viewBox="0 0 310.000000 310.000000"
 preserveAspectRatio="xMidYMid meet">
<metadata>
Created by potrace 1.14, written by Peter Selinger 2001-2017
</metadata>
<g transform="translate(0.000000,310.000000) scale(0.100000,-0.100000)"
fill="#000000" stroke="none">
<path d="M142 3010 c-18 -11 -41 -34 -52 -52 -20 -33 -20 -50 -18 -1425 l3
-1391 25 -27 c55 -59 -39 -55 1450 -55 1489 0 1395 -4 1450 55 l25 27 3 1392
2 1393 -23 34 c-12 19 -38 42 -57 51 -33 17 -121 18 -1405 18 -1349 0 -1370 0
-1403 -20z"/>
</g>
</svg>
